<svg xmlns="http://www.w3.org/2000/svg" xmlns:xlink="http://www.w3.org/1999/xlink" width="1024" zoomAndPan="magnify" viewBox="0 0 768 767.999994" height="1024" preserveAspectRatio="xMidYMid meet" version="1.0"><defs><g/></defs><rect x="-76.8" width="921.6" fill="#ffffff" y="-76.799999" height="921.599993" fill-opacity="1"/><rect x="-76.8" width="921.6" fill="#ffffff" y="-76.799999" height="921.599993" fill-opacity="1"/><g fill="#000000" fill-opacity="1"><g transform="translate(221.359577, 372.415776)"><g><path d="M 106.09375 -17.359375 L 30.984375 8.671875 C 29.585938 9.148438 28.304688 9.203125 27.140625 8.828125 C 25.972656 8.460938 25.328125 7.613281 25.203125 6.28125 L -38.09375 -157.671875 C -39.46875 -160.128906 -39.769531 -162.613281 -39 -165.125 C -38.226562 -167.632812 -36.914062 -169.210938 -35.0625 -169.859375 L 2.140625 -182.75 C 4.140625 -183.445312 6.023438 -182.976562 7.796875 -181.34375 C 9.578125 -179.71875 10.84375 -177.570312 11.59375 -174.90625 L 51.5 -21.734375 L 104.421875 -40.09375 C 105.804688 -40.570312 106.992188 -40.507812 107.984375 -39.90625 C 108.972656 -39.300781 109.453125 -38.296875 109.421875 -36.890625 L 110.265625 -23.21875 C 110.253906 -20.28125 108.863281 -18.328125 106.09375 -17.359375 Z M 106.09375 -17.359375 "/></g></g></g><g fill="#000000" fill-opacity="1"><g transform="translate(307.543966, 342.521769)"><g><path d="M 49.0625 -129.453125 L 13.859375 -125.015625 C 11.921875 -124.773438 10.1875 -125.503906 8.65625 -127.203125 C 7.125 -128.898438 6.457031 -130.910156 6.65625 -133.234375 L 3.84375 -175.28125 C 3.414062 -178.6875 3.875 -181.582031 5.21875 -183.96875 C 6.5625 -186.351562 8.523438 -187.707031 11.109375 -188.03125 L 51.15625 -193.078125 C 53.59375 -193.378906 55.515625 -192.507812 56.921875 -190.46875 C 58.328125 -188.425781 59 -185.675781 58.9375 -182.21875 L 55.703125 -139.390625 C 55.660156 -137.085938 55.023438 -134.914062 53.796875 -132.875 C 52.578125 -130.832031 51 -129.691406 49.0625 -129.453125 Z M 44.03125 12.953125 L 21.453125 15.796875 C 18.054688 16.222656 16.507812 15.019531 16.8125 12.1875 L 9.65625 -93.671875 C 9.332031 -98.890625 11.359375 -101.773438 15.734375 -102.328125 L 47.28125 -106.28125 C 49.382812 -106.550781 51.085938 -106.066406 52.390625 -104.828125 C 53.703125 -103.597656 54.101562 -101.722656 53.59375 -99.203125 L 48.84375 8.15625 C 48.21875 11.03125 46.613281 12.628906 44.03125 12.953125 Z M 44.03125 12.953125 "/></g></g></g><g fill="#000000" fill-opacity="1"><g transform="translate(369.542569, 332.481532)"><g><path d="M 83.375 -59.140625 L 68.234375 -60.203125 L 49.515625 17.703125 C 48.515625 20.398438 46.796875 21.664062 44.359375 21.5 L 21.890625 19.921875 C 20.273438 19.804688 18.960938 19.34375 17.953125 18.53125 C 16.941406 17.726562 16.722656 16.695312 17.296875 15.4375 L 25.53125 -63.203125 L 19.921875 -63.59375 C 18.296875 -63.707031 16.957031 -64.453125 15.90625 -65.828125 C 14.851562 -67.203125 14.394531 -68.867188 14.53125 -70.828125 L 15.609375 -86.203125 C 15.773438 -88.484375 16.554688 -90.3125 17.953125 -91.6875 C 19.359375 -93.0625 20.953125 -93.6875 22.734375 -93.5625 L 28.84375 -93.125 L 31.796875 -114.015625 C 33.054688 -125.035156 36.597656 -134.753906 42.421875 -143.171875 C 48.253906 -151.585938 55.503906 -158.1875 64.171875 -162.96875 C 72.835938 -167.757812 82.0625 -169.976562 91.84375 -169.625 L 113.5625 -168.09375 C 115.6875 -167.945312 117.320312 -166.769531 118.46875 -164.5625 C 119.625 -162.351562 119.519531 -159.664062 118.15625 -156.5 L 110.671875 -130.28125 C 109.691406 -128.070312 108.238281 -126.050781 106.3125 -124.21875 C 104.394531 -122.394531 102.460938 -121.550781 100.515625 -121.6875 L 91.484375 -122.3125 C 85.296875 -122.75 81.179688 -117.726562 79.140625 -107.25 L 74.71875 -89.90625 L 91.328125 -88.75 C 93.273438 -88.601562 94.769531 -87.757812 95.8125 -86.21875 C 96.851562 -84.675781 96.960938 -82.785156 96.140625 -80.546875 L 91.640625 -65.421875 C 90.859375 -63.503906 89.6875 -61.945312 88.125 -60.75 C 86.570312 -59.5625 84.988281 -59.023438 83.375 -59.140625 Z M 83.375 -59.140625 "/></g></g></g><g fill="#000000" fill-opacity="1"><g transform="translate(446.991848, 334.133049)"><g><path d="M 108.359375 11.796875 L 51.40625 -6.859375 C 49.320312 -0.492188 48.691406 4.832031 49.515625 9.125 C 50.335938 13.425781 52.84375 16.265625 57.03125 17.640625 C 59.207031 18.347656 61.660156 18.59375 64.390625 18.375 C 67.117188 18.15625 69.609375 16.953125 71.859375 14.765625 C 72.273438 14.035156 73.085938 13.53125 74.296875 13.25 C 75.515625 12.96875 76.585938 12.976562 77.515625 13.28125 L 101.234375 21.046875 C 103.242188 21.703125 104.363281 22.710938 104.59375 24.078125 C 104.832031 25.441406 104.207031 26.820312 102.71875 28.21875 C 95.132812 34.132812 86.519531 37.53125 76.875 38.40625 C 67.226562 39.289062 58.066406 38.3125 49.390625 35.46875 C 35.128906 30.800781 25.503906 22.847656 20.515625 11.609375 C 15.535156 0.367188 15.09375 -12.554688 19.1875 -27.171875 C 21.507812 -35.335938 25.078125 -43.097656 29.890625 -50.453125 C 34.703125 -57.804688 40.507812 -64.007812 47.3125 -69.0625 C 54.125 -74.125 61.9375 -77.398438 70.75 -78.890625 C 79.5625 -80.390625 89.160156 -79.4375 99.546875 -76.03125 C 112.253906 -71.875 121.257812 -65.707031 126.5625 -57.53125 C 131.863281 -49.363281 133.972656 -40.09375 132.890625 -29.71875 C 131.816406 -19.34375 127.957031 -8.726562 121.3125 2.125 L 116.3125 8.734375 C 115.59375 9.859375 114.4375 10.765625 112.84375 11.453125 C 111.25 12.140625 109.753906 12.253906 108.359375 11.796875 Z M 86.09375 -17.640625 L 89.703125 -18.5 C 90.785156 -21.238281 91.632812 -24.476562 92.25 -28.21875 C 92.875 -31.96875 92.738281 -35.488281 91.84375 -38.78125 C 90.945312 -42.082031 88.71875 -44.316406 85.15625 -45.484375 C 81.125 -46.804688 77.4375 -46.425781 74.09375 -44.34375 C 70.757812 -42.257812 67.835938 -39.484375 65.328125 -36.015625 C 62.816406 -32.546875 60.820312 -29.335938 59.34375 -26.390625 Z M 86.09375 -17.640625 "/></g></g></g><g fill="#000000" fill-opacity="1"><g transform="translate(55.907198, 507.667622)"><g><path d="M 143.65625 -54.109375 L 110.375 -65.6875 L 56.328125 31.875 C 54.941406 33.800781 53.179688 34.394531 51.046875 33.65625 L 33.640625 27.609375 C 30.992188 26.679688 30.171875 25.1875 31.171875 23.125 L 73.125 -78.640625 L 40.40625 -90.015625 C 38.894531 -90.546875 37.828125 -91.734375 37.203125 -93.578125 C 36.578125 -95.421875 36.484375 -97.394531 36.921875 -99.5 L 43.96875 -124.625 C 44.457031 -126.84375 45.585938 -128.5625 47.359375 -129.78125 C 49.128906 -131.007812 50.835938 -131.335938 52.484375 -130.765625 L 167.4375 -90.78125 C 169.207031 -90.164062 170.179688 -88.90625 170.359375 -87 C 170.546875 -85.101562 170.019531 -83.175781 168.78125 -81.21875 L 153.40625 -58.984375 C 151.957031 -57.242188 150.285156 -55.882812 148.390625 -54.90625 C 146.492188 -53.9375 144.914062 -53.671875 143.65625 -54.109375 Z M 143.65625 -54.109375 "/></g></g></g><g fill="#000000" fill-opacity="1"><g transform="translate(173.066404, 547.406289)"><g><path d="M 34.96875 -77.375 L 58.671875 -72.421875 C 59.847656 -72.179688 60.828125 -71.460938 61.609375 -70.265625 C 62.390625 -69.078125 62.691406 -67.753906 62.515625 -66.296875 C 62.285156 -65.796875 62.085938 -65.15625 61.921875 -64.375 L 61.515625 -62.40625 C 66.703125 -65.695312 71.726562 -67.582031 76.59375 -68.0625 C 81.457031 -68.550781 85.132812 -68.535156 87.625 -68.015625 C 91.40625 -67.222656 95.140625 -65.691406 98.828125 -63.421875 C 102.523438 -61.148438 104.910156 -57.71875 105.984375 -53.125 C 106.367188 -52.363281 106.285156 -51.320312 105.734375 -50 C 105.191406 -48.6875 104.644531 -47.679688 104.09375 -46.984375 L 101.5625 -44.65625 L 99.125 -41.890625 C 97.8125 -40.117188 95.003906 -37.09375 90.703125 -32.8125 C 89.410156 -31.164062 87.910156 -30.347656 86.203125 -30.359375 C 84.503906 -30.378906 83.1875 -31.101562 82.25 -32.53125 C 80.8125 -34.726562 79.144531 -36.503906 77.25 -37.859375 C 75.351562 -39.210938 73.484375 -40.082031 71.640625 -40.46875 C 67.328125 -41.363281 63.125 -39.851562 59.03125 -35.9375 C 54.9375 -32.019531 51.8125 -27.148438 49.65625 -21.328125 L 36.3125 19.046875 C 35.90625 21.003906 34.265625 21.679688 31.390625 21.078125 L 13.359375 17.3125 C 12.046875 17.039062 11.125 16.539062 10.59375 15.8125 C 10.070312 15.082031 9.957031 14.347656 10.25 13.609375 L 24.453125 -54.40625 C 25.203125 -57.382812 25.851562 -60.347656 26.40625 -63.296875 C 26.957031 -66.253906 27.410156 -69.269531 27.765625 -72.34375 C 28.148438 -74.164062 28.988281 -75.554688 30.28125 -76.515625 C 31.570312 -77.472656 33.132812 -77.757812 34.96875 -77.375 Z M 34.96875 -77.375 "/></g></g></g><g fill="#000000" fill-opacity="1"><g transform="translate(255.075079, 565.080302)"><g><path d="M 73.9375 21.515625 L 55.21875 19.6875 C 54.8125 19.644531 54.28125 19.519531 53.625 19.3125 C 52.976562 19.113281 52.703125 18.546875 52.796875 17.609375 C 47.992188 18.765625 42.800781 19.070312 37.21875 18.53125 C 32.175781 18.03125 27.503906 16.765625 23.203125 14.734375 C 18.910156 12.710938 15.53125 9.867188 13.0625 6.203125 C 10.601562 2.535156 9.648438 -2.082031 10.203125 -7.65625 C 10.535156 -13.789062 12.390625 -18.703125 15.765625 -22.390625 C 19.140625 -26.085938 23.550781 -28.742188 29 -30.359375 C 34.457031 -31.972656 40.519531 -32.519531 47.1875 -32 L 64.328125 -30.53125 L 65.0625 -33.890625 C 66.476562 -38.835938 66.566406 -42.847656 65.328125 -45.921875 C 64.085938 -48.992188 61.738281 -50.695312 58.28125 -51.03125 C 56.15625 -51.238281 54.078125 -50.90625 52.046875 -50.03125 C 50.023438 -49.15625 48.050781 -47.132812 46.125 -43.96875 C 45.644531 -43.082031 44.941406 -42.378906 44.015625 -41.859375 C 43.085938 -41.347656 42.226562 -41.128906 41.4375 -41.203125 L 18.921875 -43.40625 C 17.191406 -43.570312 15.945312 -44.226562 15.1875 -45.375 C 14.425781 -46.53125 14.332031 -47.957031 14.90625 -49.65625 C 16.625 -56.3125 20.082031 -61.898438 25.28125 -66.421875 C 30.488281 -70.941406 36.484375 -74.273438 43.265625 -76.421875 C 50.046875 -78.578125 56.753906 -79.332031 63.390625 -78.6875 C 72.023438 -77.84375 79.507812 -75.503906 85.84375 -71.671875 C 92.175781 -67.835938 96.5625 -62.617188 99 -56.015625 C 101.4375 -49.410156 101.066406 -41.5 97.890625 -32.28125 L 82.34375 9.65625 C 81.050781 13.144531 80.078125 16.203125 79.421875 18.828125 C 78.960938 19.441406 78.234375 20.070312 77.234375 20.71875 C 76.234375 21.363281 75.132812 21.628906 73.9375 21.515625 Z M 58.359375 -8.390625 L 59.640625 -13.484375 C 57.910156 -13.648438 55.878906 -13.8125 53.546875 -13.96875 C 51.222656 -14.132812 49.128906 -14.304688 47.265625 -14.484375 C 45.410156 -14.671875 43.5625 -13.914062 41.71875 -12.21875 C 39.882812 -10.519531 38.695312 -8.285156 38.15625 -5.515625 C 37.59375 -2.503906 37.96875 -0.195312 39.28125 1.40625 C 40.59375 3.019531 42.050781 3.90625 43.65625 4.0625 C 47.238281 4.40625 50.265625 3.625 52.734375 1.71875 C 55.203125 -0.175781 57.078125 -3.546875 58.359375 -8.390625 Z M 58.359375 -8.390625 "/></g></g></g><g fill="#000000" fill-opacity="1"><g transform="translate(346.873853, 574.246697)"><g><path d="M 49.640625 -2.3125 C 50.441406 -2.320312 51.566406 -2.800781 53.015625 -3.75 C 54.460938 -4.707031 55.640625 -6.328125 56.546875 -8.609375 C 57.316406 -10.753906 58.769531 -11.84375 60.90625 -11.875 L 79.703125 -12.140625 C 81.046875 -12.148438 82.085938 -11.691406 82.828125 -10.765625 C 83.578125 -9.835938 83.828125 -8.84375 83.578125 -7.78125 C 81.765625 -3.21875 78.945312 0.691406 75.125 3.953125 C 71.3125 7.210938 67.015625 9.742188 62.234375 11.546875 C 57.453125 13.347656 52.722656 14.28125 48.046875 14.34375 C 35.640625 14.519531 26.316406 11.007812 20.078125 3.8125 C 13.835938 -3.371094 10.492188 -13.367188 10.046875 -26.171875 C 9.679688 -33.378906 10.347656 -40.460938 12.046875 -47.421875 C 13.753906 -54.390625 16.601562 -60.703125 20.59375 -66.359375 C 24.582031 -72.015625 29.859375 -76.554688 36.421875 -79.984375 C 42.984375 -83.421875 50.9375 -85.203125 60.28125 -85.328125 C 66.414062 -85.410156 72.238281 -83.921875 77.75 -80.859375 C 83.269531 -77.804688 87.597656 -73.597656 90.734375 -68.234375 C 93.878906 -62.878906 95.101562 -56.660156 94.40625 -49.578125 C 94.164062 -48.109375 93.347656 -46.726562 91.953125 -45.4375 C 90.566406 -44.15625 89.078125 -43.503906 87.484375 -43.484375 L 65.46875 -43.171875 C 64.539062 -43.160156 63.703125 -43.582031 62.953125 -44.4375 C 62.210938 -45.289062 61.628906 -46.25 61.203125 -47.3125 C 60.898438 -50.507812 60.003906 -52.734375 58.515625 -53.984375 C 57.035156 -55.234375 55.828125 -55.851562 54.890625 -55.84375 C 51.554688 -55.789062 48.550781 -53.304688 45.875 -48.390625 C 43.207031 -43.484375 41.539062 -36.222656 40.875 -26.609375 C 39.9375 -17.515625 40.394531 -11.175781 42.25 -7.59375 C 44.101562 -4.019531 46.566406 -2.257812 49.640625 -2.3125 Z M 49.640625 -2.3125 "/></g></g></g><g fill="#000000" fill-opacity="1"><g transform="translate(435.487182, 573.664208)"><g><path d="M 41.296875 -26.828125 L 43.40625 6.015625 C 43.695312 8.265625 42.316406 9.585938 39.265625 9.984375 L 21.203125 12.359375 C 20.140625 12.492188 19.140625 12.320312 18.203125 11.84375 C 17.273438 11.363281 16.867188 10.578125 16.984375 9.484375 L -7.890625 -132.234375 C -8.179688 -134.472656 -7.910156 -136.523438 -7.078125 -138.390625 C -6.253906 -140.253906 -4.785156 -141.328125 -2.671875 -141.609375 L 28.296875 -145.671875 C 30.148438 -145.921875 31.71875 -145.25 33 -143.65625 C 34.289062 -142.070312 35.019531 -140.15625 35.1875 -137.90625 L 40.984375 -41.53125 C 43.609375 -48.195312 46.921875 -55.492188 50.921875 -63.421875 C 54.929688 -71.359375 58.773438 -79.269531 62.453125 -87.15625 C 62.722656 -88.132812 63.378906 -89 64.421875 -89.75 C 65.472656 -90.5 66.328125 -90.914062 66.984375 -91 L 95.375 -94.734375 C 97.757812 -95.046875 99.25 -94.195312 99.84375 -92.1875 C 100.445312 -90.175781 99.84375 -87.90625 98.03125 -85.375 L 69.515625 -38 C 70.910156 -35.632812 72.359375 -33.066406 73.859375 -30.296875 C 75.359375 -27.535156 77.285156 -23.851562 79.640625 -19.25 C 81.992188 -14.644531 85.21875 -8.578125 89.3125 -1.046875 C 89.945312 -0.304688 89.835938 0.65625 88.984375 1.84375 C 88.128906 3.03125 86.972656 3.71875 85.515625 3.90625 L 65.078125 6.59375 C 64.285156 6.695312 63.5625 6.585938 62.90625 6.265625 C 62.257812 5.941406 61.910156 5.585938 61.859375 5.203125 Z M 41.296875 -26.828125 "/></g></g></g><g fill="#000000" fill-opacity="1"><g transform="translate(535.460142, 560.632458)"><g><path d="M 79.96875 -39.515625 L 32.453125 -27.34375 C 33.816406 -22.039062 35.726562 -18.082031 38.1875 -15.46875 C 40.644531 -12.851562 43.617188 -11.992188 47.109375 -12.890625 C 48.921875 -13.359375 50.722656 -14.269531 52.515625 -15.625 C 54.304688 -16.988281 55.5 -18.914062 56.09375 -21.40625 C 56.0625 -22.082031 56.398438 -22.785156 57.109375 -23.515625 C 57.828125 -24.253906 58.570312 -24.722656 59.34375 -24.921875 L 79.109375 -29.984375 C 80.796875 -30.421875 82.019531 -30.21875 82.78125 -29.375 C 83.550781 -28.539062 83.726562 -27.316406 83.3125 -25.703125 C 80.675781 -18.265625 76.222656 -12.125 69.953125 -7.28125 C 63.679688 -2.4375 56.929688 0.910156 49.703125 2.765625 C 37.804688 5.816406 27.660156 4.5625 19.265625 -1 C 10.878906 -6.570312 4.890625 -15.304688 1.296875 -27.203125 C -0.679688 -33.859375 -1.628906 -40.78125 -1.546875 -47.96875 C -1.460938 -55.15625 -0.191406 -61.992188 2.265625 -68.484375 C 4.734375 -74.972656 8.679688 -80.664062 14.109375 -85.5625 C 19.535156 -90.46875 26.585938 -94.035156 35.265625 -96.265625 C 45.859375 -98.984375 54.78125 -98.6875 62.03125 -95.375 C 69.289062 -92.070312 74.828125 -86.601562 78.640625 -78.96875 C 82.460938 -71.332031 84.46875 -62.300781 84.65625 -51.875 L 84.109375 -45.125 C 84.128906 -44.019531 83.734375 -42.882812 82.921875 -41.71875 C 82.117188 -40.550781 81.132812 -39.816406 79.96875 -39.515625 Z M 51.671875 -50.046875 L 53.765625 -52.21875 C 53.304688 -54.582031 52.46875 -57.191406 51.25 -60.046875 C 50.039062 -62.910156 48.398438 -65.285156 46.328125 -67.171875 C 44.265625 -69.054688 41.742188 -69.617188 38.765625 -68.859375 C 35.410156 -67.992188 33.035156 -66.101562 31.640625 -63.1875 C 30.253906 -60.28125 29.457031 -57.078125 29.25 -53.578125 C 29.050781 -50.078125 29.085938 -46.992188 29.359375 -44.328125 Z M 51.671875 -50.046875 "/></g></g></g><g fill="#000000" fill-opacity="1"><g transform="translate(626.075295, 537.455102)"><g><path d="M -12 -84.0625 L 10.671875 -92.59375 C 11.785156 -93.019531 12.988281 -92.9375 14.28125 -92.34375 C 15.582031 -91.757812 16.550781 -90.804688 17.1875 -89.484375 C 17.257812 -88.941406 17.4375 -88.296875 17.71875 -87.546875 L 18.421875 -85.671875 C 21.046875 -91.222656 24.28125 -95.503906 28.125 -98.515625 C 31.96875 -101.535156 35.078125 -103.492188 37.453125 -104.390625 C 41.078125 -105.753906 45.050781 -106.46875 49.375 -106.53125 C 53.707031 -106.601562 57.5625 -104.992188 60.9375 -101.703125 C 61.675781 -101.265625 62.164062 -100.34375 62.40625 -98.9375 C 62.65625 -97.53125 62.734375 -96.378906 62.640625 -95.484375 L 61.765625 -92.171875 L 61.1875 -88.53125 C 61.03125 -86.332031 60.28125 -82.273438 58.9375 -76.359375 C 58.726562 -74.265625 57.898438 -72.765625 56.453125 -71.859375 C 55.015625 -70.960938 53.519531 -70.867188 51.96875 -71.578125 C 49.570312 -72.660156 47.207031 -73.265625 44.875 -73.390625 C 42.550781 -73.515625 40.515625 -73.242188 38.765625 -72.578125 C 34.640625 -71.023438 31.898438 -67.5 30.546875 -62 C 29.191406 -56.5 29.164062 -50.710938 30.46875 -44.640625 L 40.859375 -3.40625 C 41.566406 -1.53125 40.546875 -0.0742188 37.796875 0.953125 L 20.5625 7.453125 C 19.3125 7.921875 18.265625 7.988281 17.421875 7.65625 C 16.585938 7.320312 16.09375 6.765625 15.9375 5.984375 L -8.5625 -59.03125 C -9.519531 -61.945312 -10.554688 -64.796875 -11.671875 -67.578125 C -12.796875 -70.367188 -14.023438 -73.15625 -15.359375 -75.9375 C -16.015625 -77.6875 -16.054688 -79.3125 -15.484375 -80.8125 C -14.910156 -82.3125 -13.75 -83.394531 -12 -84.0625 Z M -12 -84.0625 "/></g></g></g></svg>