<svg xmlns="http://www.w3.org/2000/svg" xmlns:xlink="http://www.w3.org/1999/xlink" width="1024" zoomAndPan="magnify" viewBox="0 0 768 209.999996" height="280" preserveAspectRatio="xMidYMid meet" version="1.0"><defs><g/><clipPath id="7626f6777e"><rect x="0" width="767" y="0" height="194"/></clipPath></defs><g transform="matrix(1, 0, 0, 1, 1, 8)"><g clip-path="url(#7626f6777e)"><g fill="#000000" fill-opacity="1"><g transform="translate(25.706561, 158.593843)"><g><path d="M 59.828125 -2.859375 L 16.578125 6.765625 C 15.773438 6.953125 15.066406 6.90625 14.453125 6.625 C 13.835938 6.34375 13.535156 5.828125 13.546875 5.078125 L -11.03125 -89.6875 C -11.632812 -91.144531 -11.640625 -92.539062 -11.046875 -93.875 C -10.460938 -95.21875 -9.640625 -96.003906 -8.578125 -96.234375 L 12.84375 -101 C 14 -101.257812 15.015625 -100.878906 15.890625 -99.859375 C 16.765625 -98.847656 17.320312 -97.582031 17.5625 -96.0625 L 29.890625 -8.75 L 60.359375 -15.53125 C 61.148438 -15.707031 61.796875 -15.59375 62.296875 -15.1875 C 62.804688 -14.789062 63.015625 -14.207031 62.921875 -13.4375 L 62.515625 -5.8125 C 62.316406 -4.195312 61.421875 -3.210938 59.828125 -2.859375 Z M 59.828125 -2.859375 "/></g></g></g><g fill="#000000" fill-opacity="1"><g transform="translate(82.18772, 146.139444)"><g><path d="M 22.875 -73.65625 L 3.46875 -70 C 2.394531 -69.789062 1.398438 -70.128906 0.484375 -71.015625 C -0.429688 -71.910156 -0.863281 -73.007812 -0.8125 -74.3125 L -3.828125 -97.609375 C -4.179688 -99.484375 -4.023438 -101.109375 -3.359375 -102.484375 C -2.691406 -103.859375 -1.640625 -104.679688 -0.203125 -104.953125 L 21.890625 -109.109375 C 23.234375 -109.359375 24.328125 -108.9375 25.171875 -107.84375 C 26.015625 -106.757812 26.484375 -105.253906 26.578125 -103.328125 L 26.21875 -79.40625 C 26.28125 -78.125 26.003906 -76.894531 25.390625 -75.71875 C 24.785156 -74.539062 23.945312 -73.851562 22.875 -73.65625 Z M 24.921875 5.703125 L 12.46875 8.046875 C 10.59375 8.398438 9.695312 7.785156 9.78125 6.203125 L 2.1875 -52.421875 C 1.832031 -55.316406 2.863281 -56.988281 5.28125 -57.4375 L 22.6875 -60.71875 C 23.84375 -60.9375 24.800781 -60.722656 25.5625 -60.078125 C 26.332031 -59.441406 26.617188 -58.410156 26.421875 -56.984375 L 27.453125 2.875 C 27.203125 4.488281 26.359375 5.429688 24.921875 5.703125 Z M 24.921875 5.703125 "/></g></g></g><g fill="#000000" fill-opacity="1"><g transform="translate(122.887831, 138.375227)"><g><path d="M 37.890625 -42.484375 L 29.53125 -41.1875 L 29.078125 3.4375 C 28.878906 5.03125 28.101562 5.929688 26.75 6.140625 L 14.375 8.09375 C 13.46875 8.226562 12.691406 8.140625 12.046875 7.828125 C 11.398438 7.523438 11.15625 6.992188 11.3125 6.234375 L 5.984375 -37.484375 L 2.875 -37 C 1.976562 -36.863281 1.160156 -37.101562 0.421875 -37.71875 C -0.316406 -38.34375 -0.769531 -39.195312 -0.9375 -40.28125 L -2.265625 -48.75 C -2.460938 -50.007812 -2.265625 -51.097656 -1.671875 -52.015625 C -1.078125 -52.929688 -0.285156 -53.46875 0.703125 -53.625 L 4.0625 -54.15625 L 3.0625 -65.859375 C 2.363281 -72.003906 3.070312 -77.722656 5.1875 -83.015625 C 7.300781 -88.316406 10.414062 -92.804688 14.53125 -96.484375 C 18.644531 -100.171875 23.378906 -102.519531 28.734375 -103.53125 L 40.71875 -105.421875 C 41.882812 -105.597656 42.914062 -105.160156 43.8125 -104.109375 C 44.71875 -103.066406 45 -101.597656 44.65625 -99.703125 L 43.84375 -84.53125 C 43.59375 -83.207031 43.054688 -81.929688 42.234375 -80.703125 C 41.421875 -79.472656 40.476562 -78.773438 39.40625 -78.609375 L 34.421875 -77.828125 C 31.015625 -77.285156 29.410156 -74.046875 29.609375 -68.109375 L 29.375 -58.125 L 38.53125 -59.5625 C 39.601562 -59.726562 40.515625 -59.457031 41.265625 -58.75 C 42.023438 -58.039062 42.320312 -57.023438 42.15625 -55.703125 L 41.609375 -46.953125 C 41.410156 -45.804688 40.960938 -44.8125 40.265625 -43.96875 C 39.578125 -43.125 38.785156 -42.628906 37.890625 -42.484375 Z M 37.890625 -42.484375 "/></g></g></g><g fill="#000000" fill-opacity="1"><g transform="translate(173.311935, 130.291722)"><g><path d="M 57.5625 -19.375 L 24.40625 -15.484375 C 24.832031 -11.785156 25.753906 -8.945312 27.171875 -6.96875 C 28.597656 -4.988281 30.523438 -4.140625 32.953125 -4.421875 C 34.222656 -4.566406 35.523438 -5.015625 36.859375 -5.765625 C 38.191406 -6.515625 39.164062 -7.707031 39.78125 -9.34375 C 39.820312 -9.800781 40.113281 -10.242188 40.65625 -10.671875 C 41.195312 -11.097656 41.742188 -11.34375 42.296875 -11.40625 L 56.09375 -13.03125 C 57.269531 -13.164062 58.078125 -12.914062 58.515625 -12.28125 C 58.953125 -11.644531 58.960938 -10.800781 58.546875 -9.75 C 56.078125 -4.988281 52.507812 -1.257812 47.84375 1.4375 C 43.1875 4.144531 38.328125 5.796875 33.265625 6.390625 C 24.960938 7.367188 18.234375 5.59375 13.078125 1.0625 C 7.929688 -3.457031 4.691406 -9.890625 3.359375 -18.234375 C 2.617188 -22.898438 2.601562 -27.648438 3.3125 -32.484375 C 4.03125 -37.328125 5.519531 -41.828125 7.78125 -45.984375 C 10.039062 -50.140625 13.222656 -53.625 17.328125 -56.4375 C 21.429688 -59.257812 26.503906 -61.023438 32.546875 -61.734375 C 39.953125 -62.597656 45.945312 -61.582031 50.53125 -58.6875 C 55.125 -55.800781 58.359375 -51.609375 60.234375 -46.109375 C 62.117188 -40.609375 62.65625 -34.332031 61.84375 -27.28125 L 60.84375 -22.78125 C 60.757812 -22.050781 60.394531 -21.320312 59.75 -20.59375 C 59.101562 -19.875 58.375 -19.46875 57.5625 -19.375 Z M 39.390625 -29.046875 L 41.046875 -30.328125 C 40.941406 -31.960938 40.609375 -33.800781 40.046875 -35.84375 C 39.484375 -37.882812 38.585938 -39.632812 37.359375 -41.09375 C 36.140625 -42.550781 34.492188 -43.160156 32.421875 -42.921875 C 30.066406 -42.640625 28.289062 -41.582031 27.09375 -39.75 C 25.894531 -37.914062 25.066406 -35.828125 24.609375 -33.484375 C 24.148438 -31.140625 23.890625 -29.050781 23.828125 -27.21875 Z M 39.390625 -29.046875 "/></g></g></g><g fill="#000000" fill-opacity="1"><g transform="translate(239.128104, 122.798851)"><g/></g></g><g fill="#000000" fill-opacity="1"><g transform="translate(274.982775, 119.282659)"><g><path d="M 77.328125 -70.28125 L 53.375 -69.265625 L 43.640625 6.046875 C 43.253906 7.597656 42.289062 8.410156 40.75 8.484375 L 28.203125 9.015625 C 26.304688 9.097656 25.421875 8.367188 25.546875 6.828125 L 26.546875 -68.109375 L 3 -67.109375 C 1.90625 -67.066406 0.925781 -67.546875 0.0625 -68.546875 C -0.800781 -69.554688 -1.351562 -70.785156 -1.59375 -72.234375 L -3.4375 -89.890625 C -3.675781 -91.421875 -3.390625 -92.789062 -2.578125 -94 C -1.773438 -95.21875 -0.777344 -95.851562 0.40625 -95.90625 L 83.1875 -99.453125 C 84.457031 -99.503906 85.390625 -98.953125 85.984375 -97.796875 C 86.585938 -96.648438 86.738281 -95.296875 86.4375 -93.734375 L 82.28125 -75.828125 C 81.789062 -74.335938 81.066406 -73.050781 80.109375 -71.96875 C 79.160156 -70.882812 78.234375 -70.320312 77.328125 -70.28125 Z M 77.328125 -70.28125 "/></g></g></g><g fill="#000000" fill-opacity="1"><g transform="translate(360.367847, 115.900244)"><g><path d="M 12.8125 -56.359375 L 29.3125 -56.28125 C 30.125 -56.269531 30.867188 -55.921875 31.546875 -55.234375 C 32.234375 -54.554688 32.617188 -53.71875 32.703125 -52.71875 C 32.609375 -52.351562 32.5625 -51.898438 32.5625 -51.359375 L 32.546875 -50 C 35.566406 -52.882812 38.664062 -54.816406 41.84375 -55.796875 C 45.03125 -56.785156 47.488281 -57.273438 49.21875 -57.265625 C 51.851562 -57.253906 54.550781 -56.738281 57.3125 -55.71875 C 60.082031 -54.707031 62.140625 -52.75 63.484375 -49.84375 C 63.847656 -49.375 63.9375 -48.664062 63.75 -47.71875 C 63.5625 -46.769531 63.332031 -46.023438 63.0625 -45.484375 L 61.6875 -43.5625 L 60.4375 -41.40625 C 59.800781 -40.039062 58.335938 -37.640625 56.046875 -34.203125 C 55.398438 -32.929688 54.507812 -32.179688 53.375 -31.953125 C 52.238281 -31.734375 51.265625 -32.035156 50.453125 -32.859375 C 49.179688 -34.140625 47.820312 -35.101562 46.375 -35.75 C 44.925781 -36.394531 43.566406 -36.71875 42.296875 -36.71875 C 39.296875 -36.738281 36.695312 -35.160156 34.5 -31.984375 C 32.3125 -28.816406 30.890625 -25.144531 30.234375 -20.96875 L 26.8125 7.765625 C 26.800781 9.128906 25.796875 9.804688 23.796875 9.796875 L 11.265625 9.734375 C 10.359375 9.722656 9.675781 9.515625 9.21875 9.109375 C 8.757812 8.703125 8.582031 8.222656 8.6875 7.671875 L 8.921875 -39.609375 C 9.023438 -41.703125 9.054688 -43.769531 9.015625 -45.8125 C 8.984375 -47.851562 8.882812 -49.921875 8.71875 -52.015625 C 8.71875 -53.285156 9.082031 -54.328125 9.8125 -55.140625 C 10.539062 -55.960938 11.539062 -56.367188 12.8125 -56.359375 Z M 12.8125 -56.359375 "/></g></g></g><g fill="#000000" fill-opacity="1"><g transform="translate(419.787771, 116.10841)"><g><path d="M 51 12.03125 L 38.203125 11.4375 C 37.929688 11.425781 37.570312 11.363281 37.125 11.25 C 36.675781 11.144531 36.46875 10.773438 36.5 10.140625 C 33.269531 11.078125 29.75 11.457031 25.9375 11.28125 C 22.5 11.125 19.28125 10.429688 16.28125 9.203125 C 13.289062 7.984375 10.894531 6.171875 9.09375 3.765625 C 7.300781 1.359375 6.492188 -1.75 6.671875 -5.5625 C 6.679688 -9.738281 7.769531 -13.144531 9.9375 -15.78125 C 12.101562 -18.414062 15.007812 -20.375 18.65625 -21.65625 C 22.3125 -22.9375 26.410156 -23.515625 30.953125 -23.390625 L 42.671875 -22.984375 L 43.046875 -25.28125 C 43.847656 -28.71875 43.769531 -31.457031 42.8125 -33.5 C 41.863281 -35.539062 40.210938 -36.613281 37.859375 -36.71875 C 36.410156 -36.789062 35.007812 -36.492188 33.65625 -35.828125 C 32.300781 -35.160156 31.023438 -33.71875 29.828125 -31.5 C 29.523438 -30.875 29.070312 -30.367188 28.46875 -29.984375 C 27.863281 -29.609375 27.285156 -29.429688 26.734375 -29.453125 L 11.359375 -30.171875 C 10.171875 -30.222656 9.300781 -30.625 8.75 -31.375 C 8.195312 -32.132812 8.082031 -33.097656 8.40625 -34.265625 C 9.34375 -38.859375 11.5 -42.78125 14.875 -46.03125 C 18.257812 -49.28125 22.21875 -51.757812 26.75 -53.46875 C 31.289062 -55.175781 35.828125 -55.925781 40.359375 -55.71875 C 46.265625 -55.4375 51.4375 -54.101562 55.875 -51.71875 C 60.3125 -49.332031 63.46875 -45.929688 65.34375 -41.515625 C 67.226562 -37.109375 67.257812 -31.71875 65.4375 -25.34375 L 56.3125 3.703125 C 55.5625 6.117188 55.007812 8.226562 54.65625 10.03125 C 54.363281 10.457031 53.882812 10.90625 53.21875 11.375 C 52.550781 11.851562 51.8125 12.070312 51 12.03125 Z M 39.359375 -7.734375 L 40.078125 -11.234375 C 38.898438 -11.296875 37.515625 -11.34375 35.921875 -11.375 C 34.335938 -11.40625 32.910156 -11.445312 31.640625 -11.5 C 30.367188 -11.5625 29.132812 -10.976562 27.9375 -9.75 C 26.738281 -8.53125 26.007812 -6.976562 25.75 -5.09375 C 25.46875 -3.019531 25.800781 -1.457031 26.75 -0.40625 C 27.695312 0.632812 28.71875 1.179688 29.8125 1.234375 C 32.269531 1.347656 34.300781 0.714844 35.90625 -0.65625 C 37.507812 -2.039062 38.660156 -4.398438 39.359375 -7.734375 Z M 39.359375 -7.734375 "/></g></g></g><g fill="#000000" fill-opacity="1"><g transform="translate(484.687696, 119.099867)"><g><path d="M 33.765625 1.890625 C 34.296875 1.929688 35.085938 1.679688 36.140625 1.140625 C 37.203125 0.597656 38.113281 -0.414062 38.875 -1.90625 C 39.550781 -3.300781 40.613281 -3.9375 42.0625 -3.8125 L 54.8125 -2.6875 C 55.71875 -2.601562 56.394531 -2.222656 56.84375 -1.546875 C 57.289062 -0.867188 57.390625 -0.175781 57.140625 0.53125 C 55.597656 3.5 53.414062 5.953125 50.59375 7.890625 C 47.78125 9.828125 44.691406 11.238281 41.328125 12.125 C 37.972656 13.007812 34.710938 13.316406 31.546875 13.046875 C 23.117188 12.296875 17.039062 9.269531 13.3125 3.96875 C 9.59375 -1.332031 8.03125 -8.332031 8.625 -17.03125 C 8.863281 -21.9375 9.800781 -26.6875 11.4375 -31.28125 C 13.082031 -35.875 15.453125 -39.945312 18.546875 -43.5 C 21.648438 -47.0625 25.539062 -49.773438 30.21875 -51.640625 C 34.894531 -53.515625 40.40625 -54.171875 46.75 -53.609375 C 50.90625 -53.242188 54.742188 -51.832031 58.265625 -49.375 C 61.785156 -46.914062 64.425781 -43.757812 66.1875 -39.90625 C 67.945312 -36.0625 68.34375 -31.765625 67.375 -27.015625 C 67.113281 -26.035156 66.46875 -25.15625 65.4375 -24.375 C 64.40625 -23.601562 63.347656 -23.265625 62.265625 -23.359375 L 47.328125 -24.6875 C 46.691406 -24.738281 46.148438 -25.078125 45.703125 -25.703125 C 45.253906 -26.335938 44.929688 -27.035156 44.734375 -27.796875 C 44.753906 -29.972656 44.300781 -31.535156 43.375 -32.484375 C 42.445312 -33.441406 41.671875 -33.945312 41.046875 -34 C 38.773438 -34.207031 36.566406 -32.738281 34.421875 -29.59375 C 32.273438 -26.445312 30.644531 -21.644531 29.53125 -15.1875 C 28.257812 -9.09375 28.125 -4.769531 29.125 -2.21875 C 30.125 0.332031 31.671875 1.703125 33.765625 1.890625 Z M 33.765625 1.890625 "/></g></g></g><g fill="#000000" fill-opacity="1"><g transform="translate(546.635273, 124.448807)"><g><path d="M 31.890625 -10.34375 L 27.453125 11.625 C 27.253906 13.144531 26.125 13.769531 24.0625 13.5 L 11.765625 11.859375 C 11.035156 11.765625 10.40625 11.476562 9.875 11 C 9.34375 10.519531 9.210938 9.929688 9.484375 9.234375 L 18.1875 -88.328125 C 18.382812 -89.859375 18.921875 -91.160156 19.796875 -92.234375 C 20.671875 -93.316406 21.832031 -93.757812 23.28125 -93.5625 L 44.359375 -90.765625 C 45.617188 -90.597656 46.53125 -89.878906 47.09375 -88.609375 C 47.65625 -87.347656 47.796875 -85.957031 47.515625 -84.4375 L 34.28125 -20.046875 C 37.1875 -23.972656 40.65625 -28.191406 44.6875 -32.703125 C 48.726562 -37.210938 52.648438 -41.726562 56.453125 -46.25 C 56.804688 -46.851562 57.394531 -47.304688 58.21875 -47.609375 C 59.039062 -47.910156 59.671875 -48.03125 60.109375 -47.96875 L 79.4375 -45.40625 C 81.0625 -45.1875 81.890625 -44.363281 81.921875 -42.9375 C 81.960938 -41.507812 81.164062 -40.128906 79.53125 -38.796875 L 52.40625 -12.703125 C 52.894531 -10.898438 53.390625 -8.957031 53.890625 -6.875 C 54.398438 -4.789062 55.019531 -2.023438 55.75 1.421875 C 56.488281 4.867188 57.535156 9.425781 58.890625 15.09375 C 59.179688 15.695312 58.941406 16.3125 58.171875 16.9375 C 57.398438 17.5625 56.519531 17.804688 55.53125 17.671875 L 41.625 15.828125 C 41.070312 15.753906 40.613281 15.554688 40.25 15.234375 C 39.882812 14.921875 39.71875 14.628906 39.75 14.359375 Z M 31.890625 -10.34375 "/></g></g></g><g fill="#000000" fill-opacity="1"><g transform="translate(616.32711, 133.710568)"><g><path d="M 60.703125 -1.875 L 27.828125 -7.75 C 27.171875 -4.09375 27.234375 -1.105469 28.015625 1.203125 C 28.804688 3.515625 30.410156 4.890625 32.828125 5.328125 C 34.078125 5.546875 35.445312 5.488281 36.9375 5.15625 C 38.4375 4.820312 39.71875 3.960938 40.78125 2.578125 C 40.957031 2.148438 41.363281 1.804688 42 1.546875 C 42.644531 1.296875 43.242188 1.21875 43.796875 1.3125 L 57.46875 3.765625 C 58.632812 3.972656 59.332031 4.441406 59.5625 5.171875 C 59.800781 5.910156 59.566406 6.726562 58.859375 7.625 C 55.117188 11.46875 50.625 14.003906 45.375 15.234375 C 40.132812 16.472656 35.007812 16.644531 30 15.75 C 21.769531 14.28125 15.84375 10.632812 12.21875 4.8125 C 8.601562 -0.996094 7.363281 -8.097656 8.5 -16.484375 C 9.132812 -21.160156 10.492188 -25.710938 12.578125 -30.140625 C 14.671875 -34.566406 17.398438 -38.441406 20.765625 -41.765625 C 24.128906 -45.085938 28.179688 -47.5 32.921875 -49 C 37.671875 -50.507812 43.035156 -50.726562 49.015625 -49.65625 C 56.359375 -48.34375 61.8125 -45.640625 65.375 -41.546875 C 68.9375 -37.453125 70.816406 -32.5 71.015625 -26.6875 C 71.222656 -20.882812 69.910156 -14.722656 67.078125 -8.203125 L 64.84375 -4.171875 C 64.539062 -3.503906 63.972656 -2.914062 63.140625 -2.40625 C 62.304688 -1.90625 61.492188 -1.726562 60.703125 -1.875 Z M 46.109375 -16.40625 L 48.078125 -17.15625 C 48.441406 -18.75 48.648438 -20.601562 48.703125 -22.71875 C 48.765625 -24.832031 48.421875 -26.765625 47.671875 -28.515625 C 46.929688 -30.265625 45.53125 -31.320312 43.46875 -31.6875 C 41.132812 -32.101562 39.128906 -31.601562 37.453125 -30.1875 C 35.773438 -28.78125 34.375 -27.023438 33.25 -24.921875 C 32.132812 -22.816406 31.28125 -20.898438 30.6875 -19.171875 Z M 46.109375 -16.40625 "/></g></g></g><g fill="#000000" fill-opacity="1"><g transform="translate(681.237834, 145.352775)"><g><path d="M 24.453125 -52.359375 L 40.5625 -48.796875 C 41.351562 -48.617188 42.007812 -48.117188 42.53125 -47.296875 C 43.050781 -46.484375 43.25 -45.582031 43.125 -44.59375 C 42.945312 -44.25 42.800781 -43.816406 42.6875 -43.296875 L 42.390625 -41.96875 C 45.953125 -44.15625 49.390625 -45.394531 52.703125 -45.6875 C 56.023438 -45.976562 58.53125 -45.9375 60.21875 -45.5625 C 62.789062 -44.988281 65.320312 -43.910156 67.8125 -42.328125 C 70.300781 -40.753906 71.894531 -38.398438 72.59375 -35.265625 C 72.851562 -34.742188 72.789062 -34.035156 72.40625 -33.140625 C 72.019531 -32.242188 71.632812 -31.5625 71.25 -31.09375 L 69.515625 -29.515625 L 67.828125 -27.671875 C 66.921875 -26.472656 64.984375 -24.4375 62.015625 -21.5625 C 61.117188 -20.457031 60.09375 -19.914062 58.9375 -19.9375 C 57.78125 -19.96875 56.890625 -20.46875 56.265625 -21.4375 C 55.296875 -22.957031 54.171875 -24.1875 52.890625 -25.125 C 51.609375 -26.0625 50.347656 -26.664062 49.109375 -26.9375 C 46.179688 -27.59375 43.3125 -26.597656 40.5 -23.953125 C 37.6875 -21.316406 35.515625 -18.03125 33.984375 -14.09375 L 24.546875 13.25 C 24.253906 14.582031 23.132812 15.035156 21.1875 14.609375 L 8.953125 11.890625 C 8.066406 11.691406 7.441406 11.34375 7.078125 10.84375 C 6.722656 10.351562 6.648438 9.847656 6.859375 9.328125 L 17.109375 -36.828125 C 17.648438 -38.847656 18.117188 -40.859375 18.515625 -42.859375 C 18.910156 -44.867188 19.25 -46.914062 19.53125 -49 C 19.800781 -50.238281 20.378906 -51.175781 21.265625 -51.8125 C 22.148438 -52.457031 23.210938 -52.640625 24.453125 -52.359375 Z M 24.453125 -52.359375 "/></g></g></g></g></g></svg>