<svg xmlns="http://www.w3.org/2000/svg" xmlns:xlink="http://www.w3.org/1999/xlink" width="1024" zoomAndPan="magnify" viewBox="0 0 768 209.999996" height="280" preserveAspectRatio="xMidYMid meet" version="1.0"><defs><g/><clipPath id="bf5967473f"><rect x="0" width="743" y="0" height="197"/></clipPath></defs><g transform="matrix(1, 0, 0, 1, 14, 6)"><g clip-path="url(#bf5967473f)"><g fill="#000000" fill-opacity="1"><g transform="translate(24.503786, 160.142783)"><g><path d="M 63.234375 -1.703125 L 17.359375 7.515625 C 16.515625 7.679688 15.769531 7.609375 15.125 7.296875 C 14.476562 6.992188 14.171875 6.445312 14.203125 5.65625 L -9.703125 -94.96875 C -10.296875 -96.507812 -10.269531 -97.976562 -9.625 -99.375 C -8.976562 -100.78125 -8.09375 -101.597656 -6.96875 -101.828125 L 15.75 -106.390625 C 16.976562 -106.640625 18.046875 -106.21875 18.953125 -105.125 C 19.859375 -104.039062 20.421875 -102.691406 20.640625 -101.078125 L 31.765625 -8.578125 L 64.0625 -15.078125 C 64.914062 -15.242188 65.601562 -15.109375 66.125 -14.671875 C 66.65625 -14.242188 66.859375 -13.628906 66.734375 -12.828125 L 66.125 -4.78125 C 65.882812 -3.070312 64.921875 -2.046875 63.234375 -1.703125 Z M 63.234375 -1.703125 "/></g></g></g><g fill="#000000" fill-opacity="1"><g transform="translate(84.421266, 148.218417)"><g><path d="M 25.765625 -77.265625 L 5.1875 -73.828125 C 4.039062 -73.640625 3 -74.023438 2.0625 -74.984375 C 1.125 -75.953125 0.679688 -77.117188 0.734375 -78.484375 L -1.921875 -103.15625 C -2.253906 -105.132812 -2.050781 -106.84375 -1.3125 -108.28125 C -0.582031 -109.726562 0.535156 -110.578125 2.046875 -110.828125 L 25.46875 -114.75 C 26.894531 -114.988281 28.046875 -114.519531 28.921875 -113.34375 C 29.796875 -112.175781 30.257812 -110.578125 30.3125 -108.546875 L 29.421875 -83.28125 C 29.460938 -81.925781 29.144531 -80.632812 28.46875 -79.40625 C 27.800781 -78.175781 26.898438 -77.460938 25.765625 -77.265625 Z M 26.203125 6.578125 L 13 8.78125 C 11.007812 9.113281 10.066406 8.441406 10.171875 6.765625 L 3.453125 -55.3125 C 3.140625 -58.375 4.257812 -60.117188 6.8125 -60.546875 L 25.265625 -63.640625 C 26.492188 -63.835938 27.507812 -63.585938 28.3125 -62.890625 C 29.113281 -62.203125 29.390625 -61.109375 29.140625 -59.609375 L 28.921875 3.625 C 28.617188 5.332031 27.710938 6.316406 26.203125 6.578125 Z M 26.203125 6.578125 "/></g></g></g><g fill="#000000" fill-opacity="1"><g transform="translate(127.571905, 140.903769)"><g><path d="M 40.953125 -44.046875 L 32.109375 -42.859375 L 30.65625 4.25 C 30.394531 5.945312 29.550781 6.890625 28.125 7.078125 L 15 8.859375 C 14.050781 8.992188 13.238281 8.882812 12.5625 8.53125 C 11.882812 8.1875 11.640625 7.613281 11.828125 6.8125 L 7.140625 -39.46875 L 3.859375 -39.015625 C 2.910156 -38.890625 2.050781 -39.160156 1.28125 -39.828125 C 0.507812 -40.492188 0.0429688 -41.394531 -0.109375 -42.53125 L -1.328125 -51.53125 C -1.515625 -52.863281 -1.285156 -54.007812 -0.640625 -54.96875 C 0.00390625 -55.925781 0.847656 -56.476562 1.890625 -56.625 L 5.453125 -57.109375 L 4.65625 -69.484375 C 4.0625 -75.992188 4.9375 -82.019531 7.28125 -87.5625 C 9.625 -93.113281 13.007812 -97.789062 17.4375 -101.59375 C 21.863281 -105.394531 26.914062 -107.773438 32.59375 -108.734375 L 45.28125 -110.453125 C 46.519531 -110.628906 47.601562 -110.144531 48.53125 -109 C 49.46875 -107.863281 49.726562 -106.304688 49.3125 -104.328125 L 48.140625 -88.328125 C 47.847656 -86.929688 47.253906 -85.59375 46.359375 -84.3125 C 45.472656 -83.03125 44.460938 -82.3125 43.328125 -82.15625 L 38.046875 -81.4375 C 34.429688 -80.945312 32.664062 -77.554688 32.75 -71.265625 L 32.28125 -60.75 L 41.984375 -62.0625 C 43.117188 -62.21875 44.078125 -61.910156 44.859375 -61.140625 C 45.640625 -60.378906 45.9375 -59.304688 45.75 -57.921875 L 44.96875 -48.65625 C 44.75 -47.46875 44.257812 -46.4375 43.5 -45.5625 C 42.75 -44.6875 41.898438 -44.179688 40.953125 -44.046875 Z M 40.953125 -44.046875 "/></g></g></g><g fill="#000000" fill-opacity="1"><g transform="translate(180.997452, 133.462226)"><g><path d="M 61.1875 -19.21875 L 26.09375 -15.828125 C 26.476562 -11.910156 27.394531 -8.890625 28.84375 -6.765625 C 30.300781 -4.640625 32.320312 -3.703125 34.90625 -3.953125 C 36.238281 -4.078125 37.617188 -4.519531 39.046875 -5.28125 C 40.472656 -6.050781 41.53125 -7.289062 42.21875 -9 C 42.269531 -9.476562 42.585938 -9.9375 43.171875 -10.375 C 43.753906 -10.820312 44.332031 -11.078125 44.90625 -11.140625 L 59.515625 -12.546875 C 60.753906 -12.660156 61.601562 -12.378906 62.0625 -11.703125 C 62.519531 -11.035156 62.507812 -10.140625 62.03125 -9.015625 C 59.34375 -4.035156 55.5 -0.167969 50.5 2.578125 C 45.5 5.328125 40.328125 6.957031 34.984375 7.46875 C 26.203125 8.320312 19.140625 6.304688 13.796875 1.421875 C 8.453125 -3.460938 5.164062 -10.328125 3.9375 -19.171875 C 3.257812 -24.128906 3.347656 -29.15625 4.203125 -34.25 C 5.066406 -39.34375 6.734375 -44.054688 9.203125 -48.390625 C 11.679688 -52.734375 15.113281 -56.34375 19.5 -59.21875 C 23.894531 -62.101562 29.300781 -63.859375 35.71875 -64.484375 C 43.539062 -65.234375 49.847656 -64.03125 54.640625 -60.875 C 59.429688 -57.726562 62.757812 -53.234375 64.625 -47.390625 C 66.488281 -41.546875 66.914062 -34.910156 65.90625 -27.484375 L 64.765625 -22.734375 C 64.640625 -21.953125 64.226562 -21.191406 63.53125 -20.453125 C 62.832031 -19.710938 62.050781 -19.300781 61.1875 -19.21875 Z M 42.234375 -29.8125 L 43.984375 -31.15625 C 43.910156 -32.875 43.601562 -34.8125 43.0625 -36.96875 C 42.519531 -39.132812 41.617188 -41.003906 40.359375 -42.578125 C 39.097656 -44.148438 37.367188 -44.832031 35.171875 -44.625 C 32.691406 -44.382812 30.796875 -43.304688 29.484375 -41.390625 C 28.171875 -39.472656 27.25 -37.285156 26.71875 -34.828125 C 26.1875 -32.367188 25.867188 -30.164062 25.765625 -28.21875 Z M 42.234375 -29.8125 "/></g></g></g><g fill="#000000" fill-opacity="1"><g transform="translate(250.66581, 126.979656)"><g/></g></g><g fill="#000000" fill-opacity="1"><g transform="translate(288.606539, 124.046216)"><g><path d="M 83.203125 -72.546875 L 57.875 -71.984375 L 45.953125 7.328125 C 45.503906 8.972656 44.460938 9.816406 42.828125 9.859375 L 29.59375 10.140625 C 27.582031 10.191406 26.65625 9.394531 26.8125 7.75 L 29.515625 -71.359375 L 4.625 -70.8125 C 3.476562 -70.78125 2.457031 -71.304688 1.5625 -72.390625 C 0.675781 -73.472656 0.117188 -74.78125 -0.109375 -76.3125 L -1.671875 -95 C -1.898438 -96.613281 -1.570312 -98.054688 -0.6875 -99.328125 C 0.183594 -100.597656 1.25 -101.25 2.5 -101.28125 L 90 -103.21875 C 91.34375 -103.25 92.316406 -102.644531 92.921875 -101.40625 C 93.523438 -100.164062 93.648438 -98.726562 93.296875 -97.09375 L 88.5625 -78.28125 C 88.007812 -76.726562 87.21875 -75.390625 86.1875 -74.265625 C 85.164062 -73.140625 84.171875 -72.566406 83.203125 -72.546875 Z M 83.203125 -72.546875 "/></g></g></g><g fill="#000000" fill-opacity="1"><g transform="translate(378.85122, 122.330467)"><g><path d="M 14.78125 -59.234375 L 32.171875 -58.796875 C 33.035156 -58.773438 33.816406 -58.394531 34.515625 -57.65625 C 35.210938 -56.914062 35.601562 -56.019531 35.6875 -54.96875 C 35.570312 -54.582031 35.503906 -54.101562 35.484375 -53.53125 L 35.453125 -52.078125 C 38.703125 -55.066406 42.019531 -57.046875 45.40625 -58.015625 C 48.789062 -58.992188 51.394531 -59.457031 53.21875 -59.40625 C 56.007812 -59.332031 58.851562 -58.726562 61.75 -57.59375 C 64.644531 -56.46875 66.773438 -54.351562 68.140625 -51.25 C 68.515625 -50.757812 68.59375 -50.015625 68.375 -49.015625 C 68.15625 -48.015625 67.890625 -47.226562 67.578125 -46.65625 L 66.09375 -44.6875 L 64.734375 -42.40625 C 64.035156 -40.976562 62.4375 -38.472656 59.9375 -34.890625 C 59.226562 -33.566406 58.269531 -32.800781 57.0625 -32.59375 C 55.863281 -32.382812 54.84375 -32.722656 54 -33.609375 C 52.695312 -34.984375 51.285156 -36.023438 49.765625 -36.734375 C 48.242188 -37.453125 46.8125 -37.828125 45.46875 -37.859375 C 42.300781 -37.941406 39.519531 -36.332031 37.125 -33.03125 C 34.738281 -29.726562 33.15625 -25.882812 32.375 -21.5 L 28.140625 8.78125 C 28.097656 10.21875 27.019531 10.910156 24.90625 10.859375 L 11.6875 10.53125 C 10.726562 10.5 10.007812 10.257812 9.53125 9.8125 C 9.0625 9.375 8.890625 8.867188 9.015625 8.296875 L 10.296875 -41.640625 C 10.441406 -43.847656 10.519531 -46.03125 10.53125 -48.1875 C 10.539062 -50.34375 10.472656 -52.523438 10.328125 -54.734375 C 10.359375 -56.078125 10.769531 -57.171875 11.5625 -58.015625 C 12.363281 -58.867188 13.4375 -59.273438 14.78125 -59.234375 Z M 14.78125 -59.234375 "/></g></g></g><g fill="#000000" fill-opacity="1"><g transform="translate(441.596613, 123.841189)"><g><path d="M 53.609375 13.828125 L 40.09375 12.921875 C 39.8125 12.910156 39.4375 12.84375 38.96875 12.71875 C 38.5 12.59375 38.285156 12.191406 38.328125 11.515625 C 34.898438 12.429688 31.175781 12.753906 27.15625 12.484375 C 23.519531 12.242188 20.132812 11.441406 17 10.078125 C 13.863281 8.722656 11.375 6.753906 9.53125 4.171875 C 7.6875 1.597656 6.894531 -1.695312 7.15625 -5.71875 C 7.269531 -10.132812 8.5 -13.707031 10.84375 -16.4375 C 13.1875 -19.175781 16.300781 -21.179688 20.1875 -22.453125 C 24.070312 -23.734375 28.414062 -24.257812 33.21875 -24.03125 L 45.5625 -23.359375 L 46.015625 -25.78125 C 46.929688 -29.375 46.90625 -32.257812 45.9375 -34.4375 C 44.976562 -36.613281 43.253906 -37.785156 40.765625 -37.953125 C 39.234375 -38.054688 37.742188 -37.773438 36.296875 -37.109375 C 34.859375 -36.441406 33.488281 -34.941406 32.1875 -32.609375 C 31.863281 -31.960938 31.375 -31.441406 30.71875 -31.046875 C 30.0625 -30.660156 29.445312 -30.488281 28.875 -30.53125 L 12.65625 -31.609375 C 11.40625 -31.691406 10.492188 -32.132812 9.921875 -32.9375 C 9.347656 -33.75 9.25 -34.769531 9.625 -36 C 10.707031 -40.832031 13.066406 -44.929688 16.703125 -48.296875 C 20.335938 -51.660156 24.566406 -54.191406 29.390625 -55.890625 C 34.222656 -57.585938 39.035156 -58.273438 43.828125 -57.953125 C 50.054688 -57.535156 55.488281 -56.015625 60.125 -53.390625 C 64.757812 -50.773438 68.023438 -47.117188 69.921875 -42.421875 C 71.816406 -37.722656 71.722656 -32.035156 69.640625 -25.359375 L 59.390625 5.125 C 58.554688 7.65625 57.925781 9.875 57.5 11.78125 C 57.175781 12.238281 56.660156 12.707031 55.953125 13.1875 C 55.242188 13.675781 54.460938 13.890625 53.609375 13.828125 Z M 41.75 -7.3125 L 42.578125 -11 C 41.328125 -11.082031 39.863281 -11.15625 38.1875 -11.21875 C 36.507812 -11.28125 35 -11.359375 33.65625 -11.453125 C 32.320312 -11.546875 31.007812 -10.960938 29.71875 -9.703125 C 28.425781 -8.441406 27.617188 -6.8125 27.296875 -4.8125 C 26.953125 -2.625 27.273438 -0.964844 28.265625 0.15625 C 29.253906 1.28125 30.328125 1.882812 31.484375 1.96875 C 34.054688 2.132812 36.207031 1.503906 37.9375 0.078125 C 39.664062 -1.335938 40.9375 -3.800781 41.75 -7.3125 Z M 41.75 -7.3125 "/></g></g></g><g fill="#000000" fill-opacity="1"><g transform="translate(509.970135, 128.305098)"><g><path d="M 33.453125 -11.625 L 29.265625 11.671875 C 29.078125 13.296875 27.882812 13.988281 25.6875 13.75 L 12.671875 12.28125 C 11.910156 12.195312 11.242188 11.90625 10.671875 11.40625 C 10.097656 10.90625 9.957031 10.285156 10.25 9.546875 L 17.28125 -93.671875 C 17.457031 -95.285156 17.992188 -96.671875 18.890625 -97.828125 C 19.796875 -98.992188 21.015625 -99.488281 22.546875 -99.3125 L 44.875 -96.8125 C 46.207031 -96.664062 47.179688 -95.925781 47.796875 -94.59375 C 48.421875 -93.269531 48.597656 -91.804688 48.328125 -90.203125 L 35.765625 -21.921875 C 38.742188 -26.128906 42.316406 -30.65625 46.484375 -35.5 C 50.648438 -40.351562 54.691406 -45.210938 58.609375 -50.078125 C 58.984375 -50.710938 59.597656 -51.203125 60.453125 -51.546875 C 61.304688 -51.890625 61.972656 -52.035156 62.453125 -51.984375 L 82.90625 -49.6875 C 84.625 -49.5 85.519531 -48.648438 85.59375 -47.140625 C 85.664062 -45.628906 84.847656 -44.144531 83.140625 -42.6875 L 55.078125 -14.546875 C 55.628906 -12.648438 56.191406 -10.601562 56.765625 -8.40625 C 57.347656 -6.21875 58.0625 -3.316406 58.90625 0.296875 C 59.757812 3.910156 60.96875 8.703125 62.53125 14.671875 C 62.84375 15.296875 62.597656 15.945312 61.796875 16.625 C 60.992188 17.300781 60.070312 17.582031 59.03125 17.46875 L 44.296875 15.828125 C 43.710938 15.753906 43.222656 15.550781 42.828125 15.21875 C 42.441406 14.882812 42.265625 14.570312 42.296875 14.28125 Z M 33.453125 -11.625 "/></g></g></g><g fill="#000000" fill-opacity="1"><g transform="translate(583.769746, 136.570743)"><g><path d="M 64.0625 -3.3125 L 29.234375 -8.8125 C 28.617188 -4.914062 28.75 -1.757812 29.625 0.65625 C 30.507812 3.070312 32.234375 4.484375 34.796875 4.890625 C 36.117188 5.097656 37.5625 5.007812 39.125 4.625 C 40.6875 4.25 42.019531 3.320312 43.125 1.84375 C 43.300781 1.382812 43.722656 1.015625 44.390625 0.734375 C 45.066406 0.453125 45.691406 0.351562 46.265625 0.4375 L 60.765625 2.734375 C 61.992188 2.921875 62.742188 3.398438 63.015625 4.171875 C 63.285156 4.953125 63.054688 5.816406 62.328125 6.765625 C 58.472656 10.921875 53.78125 13.703125 48.25 15.109375 C 42.726562 16.523438 37.3125 16.816406 32 15.984375 C 23.289062 14.609375 16.957031 10.882812 13 4.8125 C 9.050781 -1.246094 7.585938 -8.71875 8.609375 -17.59375 C 9.191406 -22.550781 10.535156 -27.390625 12.640625 -32.109375 C 14.742188 -36.828125 17.535156 -40.972656 21.015625 -44.546875 C 24.492188 -48.128906 28.71875 -50.769531 33.6875 -52.46875 C 38.664062 -54.164062 44.332031 -54.515625 50.6875 -53.515625 C 58.457031 -52.285156 64.269531 -49.546875 68.125 -45.296875 C 71.976562 -41.046875 74.078125 -35.851562 74.421875 -29.71875 C 74.765625 -23.59375 73.515625 -17.066406 70.671875 -10.140625 L 68.40625 -5.828125 C 68.082031 -5.109375 67.488281 -4.476562 66.625 -3.9375 C 65.769531 -3.394531 64.914062 -3.1875 64.0625 -3.3125 Z M 48.34375 -18.3125 L 50.375 -19.171875 C 50.738281 -20.847656 50.925781 -22.800781 50.9375 -25.03125 C 50.957031 -27.269531 50.550781 -29.304688 49.71875 -31.140625 C 48.894531 -32.972656 47.390625 -34.0625 45.203125 -34.40625 C 42.742188 -34.800781 40.640625 -34.234375 38.890625 -32.703125 C 37.148438 -31.179688 35.710938 -29.296875 34.578125 -27.046875 C 33.453125 -24.796875 32.59375 -22.742188 32 -20.890625 Z M 48.34375 -18.3125 "/></g></g></g><g fill="#000000" fill-opacity="1"><g transform="translate(652.572208, 147.455021)"><g><path d="M 24.6875 -55.828125 L 41.765625 -52.40625 C 42.609375 -52.238281 43.3125 -51.726562 43.875 -50.875 C 44.4375 -50.03125 44.664062 -49.082031 44.5625 -48.03125 C 44.382812 -47.675781 44.238281 -47.21875 44.125 -46.65625 L 43.84375 -45.234375 C 47.5625 -47.617188 51.171875 -49 54.671875 -49.375 C 58.171875 -49.757812 60.816406 -49.769531 62.609375 -49.40625 C 65.335938 -48.863281 68.03125 -47.785156 70.6875 -46.171875 C 73.351562 -44.554688 75.09375 -42.101562 75.90625 -38.8125 C 76.1875 -38.269531 76.132812 -37.523438 75.75 -36.578125 C 75.363281 -35.628906 74.96875 -34.898438 74.5625 -34.390625 L 72.765625 -32.703125 L 71.046875 -30.6875 C 70.109375 -29.40625 68.097656 -27.21875 65.015625 -24.125 C 64.109375 -22.925781 63.039062 -22.328125 61.8125 -22.328125 C 60.59375 -22.335938 59.644531 -22.847656 58.96875 -23.859375 C 57.90625 -25.441406 56.6875 -26.710938 55.3125 -27.671875 C 53.945312 -28.628906 52.601562 -29.242188 51.28125 -29.515625 C 48.175781 -30.128906 45.164062 -29.015625 42.25 -26.171875 C 39.332031 -23.335938 37.109375 -19.820312 35.578125 -15.625 L 26.234375 13.484375 C 25.941406 14.890625 24.757812 15.382812 22.6875 14.96875 L 9.703125 12.359375 C 8.765625 12.171875 8.101562 11.816406 7.71875 11.296875 C 7.332031 10.785156 7.242188 10.257812 7.453125 9.71875 L 17.265625 -39.265625 C 17.785156 -41.410156 18.234375 -43.546875 18.609375 -45.671875 C 18.992188 -47.796875 19.304688 -49.957031 19.546875 -52.15625 C 19.816406 -53.476562 20.410156 -54.488281 21.328125 -55.1875 C 22.253906 -55.882812 23.375 -56.097656 24.6875 -55.828125 Z M 24.6875 -55.828125 "/></g></g></g></g></g></svg>